<svg version="1.1" xmlns="http://www.w3.org/2000/svg" viewBox="0 0 229.2060546875 123.74261474609375" width="458.412109375" height="247.4852294921875">
  <!-- svg-source:excalidraw -->
  
  <defs>
    <style class="style-fonts">
      @font-face {
        font-family: "Virgil";
        src: url("https://file%2B.vscode-resource.vscode-cdn.net/Users/gulinfei/.vscode/extensions/pomdtr.excalidraw-editor-3.5.1/public//dist/excalidraw-assets/Virgil.woff2");
      }
      @font-face {
        font-family: "Cascadia";
        src: url("https://file%2B.vscode-resource.vscode-cdn.net/Users/gulinfei/.vscode/extensions/pomdtr.excalidraw-editor-3.5.1/public//dist/excalidraw-assets/Cascadia.woff2");
      }
    </style>
  </defs>
  <rect x="0" y="0" width="229.2060546875" height="123.74261474609375" fill="#f8f9fa"></rect><g stroke-linecap="round" transform="translate(10 10) rotate(0 104.60302734375 51.871307373046875)"><path d="M25.94 0 M25.94 0 C75.01 -2.87, 119.14 -1.26, 183.27 0 M25.94 0 C60.96 -1.76, 95.36 -1.13, 183.27 0 M183.27 0 C201.43 -0.13, 207.55 9.9, 209.21 25.94 M183.27 0 C200.9 -0.45, 209.45 7, 209.21 25.94 M209.21 25.94 C211.15 38.81, 209.77 48.22, 209.21 77.81 M209.21 25.94 C209.36 44.02, 208.73 63.5, 209.21 77.81 M209.21 77.81 C208.63 96.79, 200.6 104.33, 183.27 103.74 M209.21 77.81 C209.37 94.07, 199.34 103.55, 183.27 103.74 M183.27 103.74 C136.6 103.15, 94.76 101.63, 25.94 103.74 M183.27 103.74 C121.94 105.71, 58.97 106.04, 25.94 103.74 M25.94 103.74 C9.36 105.63, -0.25 95.54, 0 77.81 M25.94 103.74 C8.01 102.98, -0.25 92.83, 0 77.81 M0 77.81 C1.47 62.91, 0.62 48.69, 0 25.94 M0 77.81 C0.29 58.64, -0.21 41.77, 0 25.94 M0 25.94 C0.7 9.91, 8.23 0.88, 25.94 0 M0 25.94 C-2.13 7.42, 6.55 -0.33, 25.94 0" stroke="#000000" stroke-width="1" fill="none"></path></g></svg>